<?xml version="1.0" encoding="utf-8"?>
<!-- Designed by Vexels.com - 2016 All Rights Reserved - https://vexels.com/terms-and-conditions/  -->

<svg version="1.1" id="Layer_1" xmlns="http://www.w3.org/2000/svg" xmlns:xlink="http://www.w3.org/1999/xlink" x="0px" y="0px"
	 width="1200px" height="1200px" viewBox="0 0 1200 1200" enable-background="new 0 0 1200 1200" xml:space="preserve">
<g>
	<g id="VEXELS">
	</g>
	<g id="BACKGROUND">
		<path d="M1139.495,423.761l10.505-2.4l-7.058-8.172c-6.069-7.021-11.088-14.116-15.971-21.031
			c-9.832-13.825-18.304-25.763-30.384-29.052c-41.068-11.24-83.238-21.071-123.967-30.533
			c-54.78-12.75-111.409-25.911-165.82-42.655c-63.902-19.702-123.562-29.273-182.477-29.273c-52.116,0-103.979,7.869-154.099,23.43
			c-107.896,33.461-217.081,67.908-322.684,101.244c-3.55,1.113-5.877,3.623-8.539,6.47c-1.259,1.368-2.652,2.883-4.467,4.549
			l-2.403,2.257l4.989,43.984l4.026,1.296c39.142,12.414,78.511,26.166,116.584,39.509c126.706,44.318,257.773,90.15,396.008,90.15
			c25.832,0,51.637-1.587,76.96-4.767C623.505,675.994,505.714,782.852,355.387,836.704c-15.114,5.39-30.053,9.495-44.691,12.232
			c-14.635,2.73-28.973,4.103-42.913,4.103c-33.19,0-65.198-7.76-95.145-23.102c-42.246-21.624-58.875-59.8-50.779-116.724
			c5.393-38.182,21.433-57.22,51.671-60.844c0.036,0.632,0.036,1.263,0.036,1.852c0.116,6.172,0.225,11.977,3.147,17.078
			c2.807,4.846,5.544,9.831,8.235,14.859c10.357,18.92,21.001,38.474,36.817,52.669c2.373,2.14,5.769,3.141,10.354,3.141
			c12.56,0,46.388-10.314,48.637-23.283c4.366-25.102,6.807-60.622-6.278-87.42c-15.818-32.344-45.839-49.455-86.795-49.455
			c-6.764,0-13.858,0.479-21.065,1.447c-46.903,6.281-80.127,31.379-98.726,74.623c-26.537,61.69-23.472,122.862,8.651,172.205
			c36.116,55.448,103.939,87.79,186.182,88.676c1.402,0.036,2.773,0.036,4.173,0.036c91.373,0,181.6-33.19,268.196-98.613
			c74.921-56.589,147.48-118.762,217.637-178.898c30.123-25.796,61.254-52.448,92.114-78.28c5.474-4.621,10.973-9.207,16.479-13.789
			c-1.732,5.69-3.471,11.38-5.21,17.075c-36.149,118.092-70.266,229.611-34.007,361.233l3.259,11.831l234.558-274.709l-10.424-4.69
			c-48.636-21.849-94.584-42.51-87.82-98.283C972.913,469.411,1048.828,444.605,1139.495,423.761z M556.605,328.252
			c-2.998,45.574,2.922,74.371,18.777,92.659c12.793,14.748,31.643,22.288,59.399,23.842c3.471,0.188,6.833,0.301,10.047,0.301
			c0,0,0,0,0.045,0c58.547,0,85.823-31.491,90.108-104.898l224.583,71.183c-105.821,58.295-210.533,86.679-319.61,86.679
			c-108.891-0.036-220.549-28.569-340.862-87.155L556.605,328.252z"/>
	</g>
</g>
</svg>
